# xmcd CD database file
#
# Track frame offsets:
#	150
#	24925
#	44175
#	71405
#	102375
#	115900
#	137325
#	143062
#	170425
#	190075
#	211537
#
# Disc length: 3264 seconds
#
# Revision: 0
# Processed by: cddbd v1.5.2PL0 Copyright (c) Steve Scherf et al.
# Submitted via: CDex 1.70beta2
#
DISCID=930cbe0b
DTITLE=ask myron - ask myron
DYEAR=1992
DGENRE=Jazz
TTITLE0=Pedro's Desire
TTITLE1=Occasionally
TTITLE2=For U.
TTITLE3=No Escape
TTITLE4=Macapá
TTITLE5=It Might As Well Be Fall
TTITLE6=Interludium
TTITLE7=Onyx
TTITLE8=Viver
TTITLE9=Pushin' Into Balance
TTITLE10=El beso y Carmen
EXTD=YEAR: 1992
EXTT0=
EXTT1=
EXTT2=
EXTT3=
EXTT4=
EXTT5=
EXTT6=
EXTT7=
EXTT8=
EXTT9=
EXTT10=
PLAYORDER=
